<?xml version="1.0" standalone="no"?>
<!DOCTYPE svg PUBLIC "-//W3C//DTD SVG 20010904//EN"
 "http://www.w3.org/TR/2001/REC-SVG-20010904/DTD/svg10.dtd">
<svg version="1.0" xmlns="http://www.w3.org/2000/svg"
 width="1024.000000pt" height="1024.000000pt" viewBox="0 0 1024.000000 1024.000000"
 preserveAspectRatio="xMidYMid meet">
<metadata>
Created by potrace 1.16, written by Peter Selinger 2001-2019
</metadata>
<g transform="translate(0.000000,1024.000000) scale(0.100000,-0.100000)"
fill="#000000" stroke="none">
<path d="M4565 9043 c-708 -59 -1398 -337 -1962 -789 -208 -168 -468 -442
-625 -660 -154 -215 -328 -540 -422 -791 -304 -809 -300 -1708 11 -2523 264
-691 711 -1257 1308 -1655 485 -323 956 -502 1525 -580 136 -19 518 -31 643
-20 l87 7 0 161 0 162 -52 0 -51 0 0 740 0 740 212 -1 211 -1 1 106 c0 58 4
129 9 156 4 28 7 51 6 52 -1 1 -98 7 -216 13 -117 6 -215 12 -217 14 -6 6 -11
1076 -5 1139 l5 57 788 0 788 0 -6 -87 -6 -88 166 3 166 3 3 82 3 82 573 3
572 2 0 -32 c0 -123 -63 -492 -114 -667 l-25 -84 48 -96 c49 -98 88 -203 111
-300 l13 -54 29 69 c41 95 122 339 152 454 151 592 153 1191 6 1765 -126 488
-339 912 -664 1320 -105 132 -373 398 -511 508 -559 446 -1189 708 -1885 782
-122 13 -554 18 -675 8z m145 -1080 l0 -758 -257 6 c-142 4 -343 12 -448 18
-203 13 -597 49 -604 57 -14 14 107 331 191 498 205 410 469 697 782 851 107
53 207 81 304 84 l32 1 0 -757z m467 738 c150 -31 301 -115 479 -264 271 -227
500 -591 659 -1047 19 -57 34 -104 32 -106 -4 -5 -287 -31 -462 -44 -245 -17
-540 -30 -702 -30 l-153 0 -1 103 c0 56 -1 396 -2 754 l-2 653 30 0 c17 0 71
-9 122 -19z m-1494 -223 c-220 -227 -421 -586 -565 -1011 -22 -67 -45 -126
-50 -132 -21 -23 -758 137 -758 165 0 4 32 45 71 91 255 299 559 544 914 737
98 53 410 199 430 201 5 1 -14 -23 -42 -51z m2464 -6 c365 -159 705 -387 987
-662 117 -114 286 -303 286 -320 0 -10 -220 -74 -356 -104 -190 -43 -385 -74
-390 -62 -2 6 -22 65 -45 131 -136 400 -308 717 -518 954 -31 35 -66 76 -79
92 l-24 29 24 -9 c13 -5 65 -27 115 -49z m-3878 -1292 c203 -55 389 -97 558
-126 80 -13 148 -24 152 -24 4 0 -7 -65 -25 -144 -68 -304 -116 -645 -134
-948 -7 -101 -14 -198 -16 -215 l-5 -33 -574 0 c-541 0 -575 1 -575 18 0 56
25 267 46 391 63 378 174 691 361 1024 30 53 57 97 60 97 3 0 71 -18 152 -40z
m5421 -80 c223 -401 362 -865 386 -1292 l7 -118 -571 0 -571 0 -5 33 c-3 17
-8 88 -11 157 -13 272 -56 601 -120 915 -24 116 -42 211 -41 212 1 1 94 20
206 43 240 48 450 99 564 138 44 15 84 26 88 25 3 -2 34 -53 68 -113z m-4109
-150 c293 -31 901 -69 1112 -70 16 0 17 -35 17 -595 l0 -595 -790 0 -790 0 0
78 c0 186 35 540 76 782 26 154 80 406 90 422 4 6 26 8 54 4 26 -4 130 -15
231 -26z m2882 -56 c76 -300 133 -707 144 -1021 l6 -183 -791 0 c-626 0 -792
3 -794 13 -1 6 -2 273 -2 593 l-1 581 250 7 c383 10 892 45 1095 75 30 5 60 8
65 6 6 -1 18 -33 28 -71z m-3659 -1540 c3 -9 6 -50 6 -92 0 -278 73 -762 182
-1211 2 -10 -43 -23 -187 -51 -221 -44 -419 -94 -560 -144 -55 -19 -100 -34
-101 -33 -27 42 -98 174 -149 275 -193 386 -291 733 -339 1215 l-6 57 574 0
c514 0 574 -2 580 -16z m1906 -588 l0 -603 -242 -7 c-395 -11 -731 -32 -1012
-62 -76 -8 -141 -12 -144 -9 -10 10 -82 324 -107 466 -36 207 -64 468 -72 657
l-6 162 791 0 792 0 0 -604z m0 -1666 c0 -708 -1 -750 -17 -750 -62 0 -204 35
-263 65 -173 87 -387 265 -533 444 -108 131 -225 319 -322 515 -78 156 -180
395 -172 403 5 4 223 24 427 39 220 16 543 29 768 32 l112 2 0 -750z m-1581
505 c153 -419 356 -772 583 -1011 81 -85 81 -85 -62 -26 -294 123 -619 322
-870 533 -147 125 -440 424 -440 450 0 20 317 107 625 173 117 24 110 29 164
-119z"/>
<path d="M6575 4900 c-377 -82 -666 -350 -776 -721 -20 -67 -22 -103 -26 -360
l-5 -287 -47 -4 c-114 -11 -236 -103 -282 -214 l-24 -59 -3 -788 c-2 -513 1
-808 8 -845 20 -109 85 -198 185 -251 l50 -26 1210 0 1210 0 50 27 c54 28 123
96 149 146 44 85 46 118 46 917 0 814 0 817 -50 916 -30 58 -94 117 -159 147
-49 24 -71 27 -183 30 l-128 4 0 202 c0 328 -22 460 -103 625 -126 258 -347
443 -632 527 -125 37 -356 44 -490 14z m386 -365 c198 -51 368 -214 436 -418
26 -80 27 -87 27 -332 l1 -250 -645 0 -645 0 0 250 0 250 31 85 c82 230 277
392 518 431 70 11 201 3 277 -16z m83 -1564 c189 -93 252 -327 135 -504 -27
-41 -49 -61 -124 -112 -13 -9 -5 -46 55 -255 38 -134 66 -248 62 -252 -5 -5
-137 -7 -293 -6 -277 3 -284 4 -283 23 1 11 31 123 68 250 44 151 63 231 55
234 -6 2 -34 22 -63 45 -35 29 -62 63 -86 110 -32 63 -35 76 -35 155 0 72 4
95 26 141 66 141 188 214 346 206 56 -2 87 -10 137 -35z"/>
</g>
</svg>
